# xmcd
#
# Track frame offsets:
#	150
#	13808
#	25262
#	36389
#	50321
#	64257
#	82702
#	92831
#	105019
#	118764
#	129781
#	145485
#
# Disc length: 2095 seconds
#
# Revision: 0
# Processed by: cddbd v1.5.1PL0 Copyright (c) Steve Scherf et al.
# Submitted via: dBpowerAMP V4.0
#
DISCID=94082d0c
DTITLE=Diana Reyes - Pasito Duranguense
DYEAR=2005
DGENRE=Vocal
TTITLE0=Que Sola Estoy Sin Ti
TTITLE1=Dime Si Ya No Puedes
TTITLE2=Orale
TTITLE3=Corazon Magico
TTITLE4=Basta Ya
TTITLE5=Rosas
TTITLE6=El Puente Roto
TTITLE7=La Lista De Mis Amantes
TTITLE8=Tu Muñeca
TTITLE9=El Viejo Naranjo
TTITLE10=La Pareja Ideal
TTITLE11=La Hija De Nadie
EXTD=DIANA REYES: SINALOENSE CON RITMO DURANGUENSE
EXTT0=
EXTT1=
EXTT2=
EXTT3=
EXTT4=
EXTT5=
EXTT6=
EXTT7=
EXTT8=
EXTT9=
EXTT10=
EXTT11=
PLAYORDER=
